<svg width="122" height="116" viewBox="0 0 122 116" fill="none" xmlns="http://www.w3.org/2000/svg">
<path d="M95.0653 -75.4528C99.0404 -88.3524 117.61 -87.3968 120.24 -74.1573L126.119 -44.5625C127.697 -36.6158 136.081 -32.0333 143.622 -34.9954L171.706 -46.0266C184.27 -50.9615 195.101 -35.8477 186.39 -25.5368L166.917 -2.4884C161.688 3.70044 163.333 13.1125 170.35 17.1615L196.485 32.2408C208.177 38.9867 203.113 56.8778 189.62 56.4957L159.459 55.6418C151.361 55.4125 145.027 62.5666 146.237 70.5777L150.742 100.412C152.758 113.759 135.613 120.955 127.499 110.168L109.362 86.0548C104.492 79.5801 94.9495 79.089 89.4404 85.0297L68.9236 107.154C59.7453 117.051 43.4295 108.133 46.8044 95.0639L54.3484 65.8491C56.3741 58.0045 50.8086 50.2381 42.7292 49.6348L12.6399 47.3883C-0.820875 46.3833 -4.02134 28.067 8.30101 22.5569L35.8456 10.2399C43.2418 6.93262 45.8438 -2.26091 41.278 -8.95377L24.274 -33.8792C16.6671 -45.0299 28.992 -58.9521 40.9828 -52.7536L67.7864 -38.8979C74.9836 -35.1774 83.7937 -38.8751 86.1796 -46.6178L95.0653 -75.4528Z" fill="#CC4A79"/>
</svg>
