<svg width="106" height="110" viewBox="0 0 106 110" fill="none" xmlns="http://www.w3.org/2000/svg">
<path d="M93.3038 9.46501C97.2789 -3.43461 115.848 -2.47903 118.478 10.7605L124.146 39.2942C125.725 47.2408 134.109 51.8233 141.65 48.8613L168.727 38.2256C181.291 33.2907 192.122 48.4045 183.41 58.7154L164.636 80.9374C159.407 87.1262 161.052 96.5382 168.069 100.587L193.267 115.126C204.959 121.872 199.895 139.763 186.402 139.381L157.323 138.557C149.224 138.328 142.891 145.482 144.1 153.493L148.444 182.258C150.46 195.605 133.315 202.801 125.201 192.014L107.714 168.765C102.844 162.291 93.3015 161.8 87.7924 167.74L68.0113 189.071C58.8329 198.968 42.5172 190.051 45.892 176.981L53.1656 148.814C55.1912 140.969 49.6258 133.203 41.5464 132.6L12.5359 130.434C-0.924835 129.429 -4.12527 111.112 8.19708 105.602L34.7541 93.7269C42.1502 90.4196 44.7522 81.226 40.1864 74.5332L23.7921 50.5015C16.1852 39.3508 28.5101 25.4286 40.5009 31.6271L66.3434 44.986C73.5406 48.7065 82.3507 45.0088 84.7367 37.2661L93.3038 9.46501Z" fill="#5D81DD"/>
</svg>
